<svg xmlns="http://www.w3.org/2000/svg" viewBox="0 0 64 80" x="0px" y="0px">
	<title>Bear-animal-wild-wildlife-brown</title>
	<g>
		<g data-name="29-BEAR">
			<path d="M40.472,20.118a1,1,0,0,0-1.027.05l-5.318,3.545-.782-.782a1,1,0,0,0,.55-.484l2-4a1,1,0,0,0-.579-1.395l-3-1a.991.991,0,0,0-.632,0l-3,1a1,1,0,0,0-.579,1.395l2,4a1,1,0,0,0,.55.484l-.782.782-5.318-3.545A1,1,0,0,0,23,21v8a1,1,0,0,0,.485.857l5,3A1,1,0,0,0,29,33h6a1,1,0,0,0,.515-.143l5-3A1,1,0,0,0,41,29V21A1,1,0,0,0,40.472,20.118ZM32,18.054l1.59.53L32.382,21h-.764L30.41,18.584Zm7,10.38-4,2.4V29H33v2H31V29H29v1.834l-4-2.4V22.868L27,24.2V27h2V25.535l.445.3a1,1,0,0,0,1.262-.125L32,24.414l1.293,1.293a1,1,0,0,0,1.262.125l.445-.3V27h2V24.2l2-1.334Z"/>
			<path d="M23.684,15.052l.632,1.9,3-1a1,1,0,0,0,.391-1.655l-4-4-1.414,1.414,2.855,2.856Z"/>
			<path d="M36.293,14.293a1,1,0,0,0,.391,1.655l3,1,.632-1.9-1.464-.489,2.855-2.856-1.414-1.414Z"/>
			<path d="M61.293,11.293l-1,1A1,1,0,0,0,60,13v1H58V11.414l1.707-1.707L58.293,8.293l-2,2A1,1,0,0,0,56,11v3H54V9.414l1.707-1.707L54.293,6.293l-2,2A1,1,0,0,0,52,9V19.323L48.81,20.6,47.061,8.354l1.646-1.647a1,1,0,0,0,0-1.414l-3-3a1,1,0,0,0-1.414,0L42.586,4H21.414L19.707,2.293a1,1,0,0,0-1.414,0l-3,3a1,1,0,0,0,0,1.414l1.646,1.647L15.223,20.367,12,18.434V9a1,1,0,0,0-.293-.707l-2-2L8.293,7.707,10,9.414V14H8V11a1,1,0,0,0-.293-.707l-2-2L4.293,9.707,6,11.414V14H4V13a1,1,0,0,0-.293-.707l-1-1L1.293,12.707,2,13.414V26a1,1,0,0,0,.293.707L12.962,37.376,12,47.909a1.031,1.031,0,0,0,0,.215l.957,7.657-2.822,4.7A1,1,0,0,0,11,62H26a1,1,0,0,0,1-1V58.181l4.836.8a1,1,0,0,0,.328,0l4.836-.8V61a1,1,0,0,0,1,1H53a1,1,0,0,0,.857-1.515l-2.822-4.7.957-7.657a1.031,1.031,0,0,0,0-.215l-.955-10.5L61.673,27.74A1,1,0,0,0,62,27V13.414l.707-.707ZM60,26.558l-10.673,9.7a1,1,0,0,0-.323.831l.99,10.892-.986,7.893a.989.989,0,0,0,.135.639L51.233,60H48V58H46v2H44V58H42v2H39V57a1,1,0,0,0-1.164-.986L32,56.986l-5.836-.972a1.012,1.012,0,0,0-.81.223A1,1,0,0,0,25,57v3H22V58H20v2H18V58H16v2H12.767l2.09-3.485a.989.989,0,0,0,.135-.639l-.986-7.893L15,37.091a1,1,0,0,0-.289-.8L4,25.586V16h6v3a1,1,0,0,0,.485.857l5,3a1,1,0,0,0,1.5-.715l2-14a1,1,0,0,0-.283-.849L17.414,6,19,4.414l1.293,1.293A1,1,0,0,0,21,6H43a1,1,0,0,0,.707-.293L45,4.414,46.586,6,45.293,7.293a1,1,0,0,0-.283.849l2,14a1,1,0,0,0,1.361.787l5-2A1,1,0,0,0,54,20V16h6Z"/>

			<path d="M36.876,37.012l-1.044-1.567a1,1,0,0,0-1.689.04L32,39.057l-2.143-3.572a1,1,0,0,0-1.689-.04l-1.044,1.567L25.9,34.553l-1.79.894,2,4a1,1,0,0,0,.833.551.987.987,0,0,0,.894-.443l1.123-1.686,2.188,3.646a1,1,0,0,0,1.714,0l2.188-3.646,1.123,1.686a.989.989,0,0,0,.9.443,1,1,0,0,0,.832-.551l2-4-1.79-.894Z"/>
		</g>
	</g>
</svg>
